<svg width="30" height="30" viewBox="0 0 30 30" fill="none" xmlns="http://www.w3.org/2000/svg">
<path d="M15 15.8C14.5536 15.8017 14.1201 15.95 13.7661 16.2221C13.4122 16.4942 13.1574 16.8751 13.041 17.306C12.9245 17.737 12.9528 18.1943 13.1216 18.6076C13.2904 19.021 13.5902 19.3674 13.975 19.5937V22.5H16.05V19.5937C16.3545 19.4137 16.6071 19.1578 16.7835 18.8512C16.9598 18.5445 17.0538 18.1975 17.0563 17.8437C17.0563 17.5743 17.003 17.3075 16.8995 17.0587C16.796 16.81 16.6443 16.5841 16.4532 16.3942C16.2621 16.2042 16.0354 16.0539 15.786 15.952C15.5365 15.85 15.2694 15.7983 15 15.8Z" stroke="#637381" stroke-linecap="round" stroke-linejoin="round"/>
<path d="M22.6812 11.1062H7.31249C5.82132 11.1062 4.61249 12.3151 4.61249 13.8062V24.4875C4.61249 25.9787 5.82132 27.1875 7.31249 27.1875H22.6812C24.1724 27.1875 25.3812 25.9787 25.3812 24.4875V13.8062C25.3812 12.3151 24.1724 11.1062 22.6812 11.1062Z" stroke="#637381" stroke-width="2" stroke-linecap="round" stroke-linejoin="round"/>
<path d="M8.34375 11.1063V9.475C8.34375 7.708 9.04569 6.01336 10.2952 4.7639C11.5446 3.51444 13.2392 2.8125 15.0062 2.8125C16.7733 2.8125 18.4679 3.51444 19.7173 4.7639C20.9668 6.01336 21.6687 7.708 21.6687 9.475V11.1063" stroke="#637381" stroke-width="2" stroke-linecap="round" stroke-linejoin="round"/>
</svg>
